Coordinates
version=1
nRows=9
nColumns=24
inDegrees=yes

Units are S.I. units (second, meters, Newtons, ...)
Angles are in degrees.

endheader
time	pelvis_tilt	pelvis_list	pelvis_rotation	pelvis_tx	pelvis_ty	pelvis_tz	hip_flexion_r	hip_adduction_r	hip_rotation_r	knee_angle_r	ankle_angle_r	subtalar_angle_r	mtp_angle_r	hip_flexion_l	hip_adduction_l	hip_rotation_l	knee_angle_l	ankle_angle_l	subtalar_angle_l	mtp_angle_l	lumbar_extension	lumbar_bending	lumbar_rotation
      4.17000000	     -8.08874391	      3.18151337	    -10.27451991	     -0.62585374	     -0.05548549	      0.65904492	     -9.26914572	     -3.19434982	      4.06867047	    -14.54619933	     13.94151923	      1.07006307	      3.43441898	     37.95316741	     -3.71627130	    -20.49718817	    -18.46672792	     -6.40823991	     12.23131062	     11.11734911	      3.53997027	     -3.12974142	     14.15133887
      4.17500000	     -8.11406427	      3.66942032	    -10.18113654	     -0.61781166	     -0.05650837	      0.65846138	     -9.31117183	     -3.83789181	      3.95094357	    -15.32359914	     13.58256843	      1.26247896	      3.59046453	     38.19849422	     -3.18642181	    -20.18367742	    -19.50081484	     -7.05450814	     11.56328379	     11.59411345	      3.73357344	     -3.73174076	     14.03932788
      4.18000000	     -8.12834043	      4.15210576	    -10.06333739	     -0.60977125	     -0.05744703	      0.65782596	     -9.32809906	     -4.48084977	      3.81468399	    -16.17745041	     13.12755513	      1.49086825	      3.78998644	     38.46915140	     -2.64506538	    -19.75266299	    -20.63768069	     -7.55784779	     10.95670761	     11.83126514	      3.90720025	     -4.33295948	     13.89242992
      4.18500000	     -8.13627020	      4.62848672	     -9.89757202	     -0.60171538	     -0.05834016	      0.65712302	     -9.32739710	     -5.12149306	      3.61835056	    -17.09266370	     12.62101324	      1.80876502	      4.06277619	     38.77411358	     -2.08470103	    -19.26699493	    -21.87179172	     -7.93594506	     10.39927050	     11.93982413	      4.06582793	     -4.93400112	     13.73865745
      4.19000000	     -8.14534491	      5.09407082	     -9.72637336	     -0.59360146	     -0.05915219	      0.65638914	     -9.27878323	     -5.76008783	      3.39638009	    -18.10583397	     11.99528355	      2.18728043	      4.38721501	     39.07699396	     -1.52945280	    -18.78723500	    -23.13484462	     -8.14922378	      9.91504291	     11.93603673	      4.22875813	     -5.52210783	     13.54862360
      4.19500000	     -8.14449724	      5.51380849	     -9.53627198	     -0.58548015	     -0.05987635	      0.65559335	     -9.19634915	     -6.36861708	      3.07872839	    -19.20835270	     11.25037737	      2.70421341	      4.81278700	     39.36486289	     -1.00109190	    -18.33138655	    -24.42364813	     -8.21843751	      9.44997705	     11.82280178	      4.36802084	     -6.05708103	     13.36710924
      4.20000000	     -8.15981149	      5.92309150	     -9.33419058	     -0.57736888	     -0.06053844	      0.65482749	     -9.04187110	     -6.96003461	      2.80954772	    -20.42181419	     10.42044712	      3.21393292	      5.23517717	     39.63662496	     -0.48722563	    -17.94242176	    -25.66979619	     -8.18035444	      9.11658075	     11.68534243	      4.51373714	     -6.58780271	     13.16213352
      4.20500000	     -8.17570484	      6.27512723	     -9.10999501	     -0.56920155	     -0.06112804	      0.65402247	     -8.84877897	     -7.50095555	      2.48286020	    -21.72348142	      9.46402671	      3.78563138	      5.65649674	     39.86501984	     -0.01833160	    -17.66668490	    -26.87629579	     -7.98892836	      8.80966158	     11.57987602	      4.65731038	     -7.05081834	     12.95695565
      4.21000000	     -8.15101398	      6.59507411	     -8.90003059	     -0.56115444	     -0.06152962	      0.65318138	     -8.61991056	     -8.03589419	      2.14208769	    -23.13123901	      8.38635211	      4.44171116	      6.29034804	     39.97416208	      0.45410983	    -17.32005007	    -27.94829459	     -7.71762475	      8.51030901	     11.37116732	      4.72650302	     -7.48085047	     12.80273670
